<svg width="876" height="776" viewBox="0 0 876 776" fill="none" xmlns="http://www.w3.org/2000/svg">
<path d="M212.013 775.149C209.36 774.179 205.873 770.462 203.774 766.367C199.376 757.788 198.774 759.679 233.992 671.355C310.425 479.663 304.259 494.606 307.959 492.112C314.215 487.896 325.178 490.407 328.492 496.815C332.096 503.784 332.618 502.276 286.039 619.538C261.854 680.425 242.265 730.44 242.508 730.683C243.027 731.203 668.985 548.591 668.97 547.855C668.966 547.58 607.435 520.258 532.237 487.139C247.717 361.83 10.3957 257.109 7.27965 255.495C3.00971 253.284 0.869873 248.885 0.869873 242.318C0.869873 233.843 5.27969 226.83 11.6078 225.242C13.1639 224.851 20.1099 227.422 33.6953 233.418C44.5949 238.228 120.113 271.579 201.513 307.531C282.913 343.482 431.817 409.225 532.411 453.626C708.032 531.143 715.423 534.51 718.161 538.255C720.215 541.064 721.007 543.302 720.991 546.255C720.968 550.582 718.291 557.574 715.921 559.499C714.824 560.39 329.743 727.251 235.963 767.471C216.78 775.698 215.041 776.256 212.013 775.149ZM858.013 548.964C855.538 547.985 822.913 533.654 785.513 517.118C691.203 475.42 292.332 299.335 220.122 267.521C164.245 242.903 160.562 241.124 157.872 237.455C155.809 234.641 155.019 232.413 155.035 229.455C155.058 225.123 157.739 218.125 160.104 216.221C160.879 215.598 212.813 192.932 275.513 165.854C338.213 138.775 442.388 93.7736 507.013 65.8499C571.638 37.9261 632.517 11.6246 642.3 7.40203C658.708 0.320595 660.345 -0.190361 663.403 0.818849C667.455 2.15605 670.417 5.18545 672.465 10.0864C676.089 18.7609 677.759 13.9832 622.744 152.354C574.303 274.186 571.288 281.427 568.096 283.578C561.81 287.814 550.855 285.319 547.533 278.895C543.947 271.959 543.445 273.408 590.013 156.31C614.213 95.4567 634.013 45.3275 634.013 44.9114C634.013 44.0107 207.084 227.07 207.042 227.988C207.026 228.337 207.8 228.84 208.763 229.106C209.725 229.373 243.138 243.997 283.013 261.606C322.888 279.214 470.038 344.125 610.013 405.853C749.988 467.581 866.138 518.911 868.125 519.92C879.138 525.515 876.589 546.882 864.513 550.196C863.413 550.498 860.488 549.943 858.013 548.964Z" fill="url(#paint0_linear_8_21)"/>
<defs>
<linearGradient id="paint0_linear_8_21" x1="942" y1="134.5" x2="-45" y2="472.5" gradientUnits="userSpaceOnUse">
<stop stop-color="#403989"/>
<stop offset="1" stop-color="#D2365C"/>
</linearGradient>
</defs>
</svg>
