<?xml version="1.0" encoding="UTF-8" standalone="no"?>
<!-- Created with Inkscape (http://www.inkscape.org/) -->

<svg
   width="1000"
   height="1000"
   viewBox="0 0 264.58333 264.58333"
   version="1.1"
   id="svg1"
   xml:space="preserve"
   inkscape:version="1.3.2 (091e20e, 2023-11-25)"
   sodipodi:docname="focus-plus-balck-logo.svg"
   xmlns:inkscape="http://www.inkscape.org/namespaces/inkscape"
   xmlns:sodipodi="http://sodipodi.sourceforge.net/DTD/sodipodi-0.dtd"
   xmlns="http://www.w3.org/2000/svg"
   xmlns:svg="http://www.w3.org/2000/svg"><sodipodi:namedview
     id="namedview1"
     pagecolor="#ffffff"
     bordercolor="#000000"
     borderopacity="0.25"
     inkscape:showpageshadow="2"
     inkscape:pageopacity="0.0"
     inkscape:pagecheckerboard="0"
     inkscape:deskcolor="#d1d1d1"
     inkscape:document-units="mm"
     inkscape:zoom="0.2102413"
     inkscape:cx="397.16269"
     inkscape:cy="561.25984"
     inkscape:window-width="1440"
     inkscape:window-height="847"
     inkscape:window-x="0"
     inkscape:window-y="25"
     inkscape:window-maximized="1"
     inkscape:current-layer="layer1" /><defs
     id="defs1" /><g
     inkscape:label="Layer 1"
     inkscape:groupmode="layer"
     id="layer1"><path
       style="fill:#000000"
       d="m 72.499192,234.72476 c -0.701807,-0.25655 -1.624442,-1.23996 -2.179919,-2.32351 -1.163659,-2.26992 -1.322838,-1.76943 7.995181,-25.1386 20.223011,-50.71839 18.591552,-46.76492 19.57048,-47.42462 1.655376,-1.11556 4.555986,-0.45122 5.432756,1.24429 0.9535,1.84386 1.09152,1.44485 -11.232291,32.47033 -6.399045,16.10972 -11.582017,29.34301 -11.517716,29.40732 0.137489,0.13748 112.838617,-48.17855 112.834827,-48.37336 -0.001,-0.0728 -16.28126,-7.30179 -36.17743,-16.0645 C 81.94583,125.36744 19.154688,97.660123 18.330231,97.233153 c -1.129755,-0.58507 -1.695922,-1.74901 -1.695922,-3.48649 0,-2.24241 1.166766,-4.09791 2.841066,-4.51813 0.411741,-0.10334 2.249524,0.57695 5.843989,2.16327 2.883852,1.2727 22.864619,10.096737 44.401703,19.608977 21.537084,9.51223 60.934643,26.90674 87.550153,38.65446 46.46632,20.5096 48.42185,21.40056 49.14635,22.39138 0.54351,0.74329 0.75291,1.33527 0.74872,2.11667 -0.006,1.1449 -0.71421,2.99475 -1.34132,3.50417 -0.29029,0.23582 -102.17639,44.3843 -126.988838,55.02581 -5.075546,2.17679 -5.535816,2.32434 -6.33694,2.03149 z M 243.42002,174.88001 c -0.65484,-0.2591 -9.28687,-4.05076 -19.18229,-8.4259 C 199.28502,155.42155 93.750417,108.83228 74.644818,100.41487 59.860583,93.901343 58.886316,93.430783 58.174505,92.459933 c -0.545882,-0.74453 -0.754945,-1.33397 -0.750753,-2.11667 0.0061,-1.1461 0.715403,-2.99758 1.341321,-3.50142 0.204963,-0.16499 13.945786,-6.16185 30.535161,-13.32635 16.589366,-7.16451 44.152336,-19.07123 61.251036,-26.45939 17.0987,-7.38817 33.20639,-14.34711 35.79488,-15.46432 4.34104,-1.87363 4.77441,-2.00882 5.58348,-1.7418 1.07203,0.3538 1.85575,1.15533 2.39755,2.45205 0.95897,2.29513 1.40077,1.03102 -13.15544,37.6415 -12.81647,32.234847 -13.61428,34.150587 -14.45892,34.719797 -1.66305,1.12073 -4.56154,0.46058 -5.44048,-1.23909 -0.9489,-1.83498 -1.08171,-1.45171 11.23934,-32.434007 6.40292,-16.10065 11.64167,-29.364 11.64167,-29.4741 0,-0.2383 -112.958253,48.19602 -112.969394,48.4391 -0.0042,0.0922 0.200679,0.22526 0.45534,0.29576 0.254662,0.0705 9.095053,3.93998 19.645313,8.59886 10.550261,4.658867 49.483691,21.833297 86.518741,38.165397 37.03506,16.3321 67.76656,29.91322 68.29224,30.18026 2.91384,1.48024 2.2393,7.13357 -0.95578,8.01039 -0.29104,0.0799 -1.06495,-0.0668 -1.71979,-0.32589 z"
       id="path1" /></g></svg>
